<svg width="64" height="64" viewBox="0 0 64 64" fill="none" xmlns="http://www.w3.org/2000/svg">
<path d="M59.1557 31.5624L35.0057 7.42491L33.387 5.80616C33.0181 5.43977 32.5194 5.23413 31.9995 5.23413C31.4796 5.23413 30.9808 5.43977 30.612 5.80616L4.84323 31.5624C4.4653 31.9389 4.16661 32.3872 3.9648 32.881C3.76299 33.3748 3.66215 33.904 3.66823 34.4374C3.69323 36.6374 5.52448 38.3937 7.72448 38.3937H10.3807V58.7499H53.6182V38.3937H56.3307C57.3995 38.3937 58.4057 37.9749 59.162 37.2187C59.5344 36.8475 59.8294 36.4061 60.03 35.9201C60.2306 35.4341 60.3328 34.9132 60.3307 34.3874C60.3307 33.3249 59.912 32.3187 59.1557 31.5624V31.5624ZM35.4995 54.2499H28.4995V41.4999H35.4995V54.2499ZM49.1182 33.8937V54.2499H39.4995V39.9999C39.4995 38.6187 38.3807 37.4999 36.9995 37.4999H26.9995C25.6182 37.4999 24.4995 38.6187 24.4995 39.9999V54.2499H14.8807V33.8937H8.88073L32.0057 10.7874L33.4495 12.2312L55.1245 33.8937H49.1182Z" fill="#4D6595"/>
</svg>
