<svg width="64" height="64" viewBox="0 0 64 64" fill="none" xmlns="http://www.w3.org/2000/svg">
<path d="M27.9996 40.7467V14.6667C27.9996 13.9595 27.7186 13.2812 27.2185 12.7811C26.7184 12.281 26.0402 12.0001 25.3329 12.0001C24.6257 12.0001 23.9474 12.281 23.4473 12.7811C22.9472 13.2812 22.6663 13.9595 22.6663 14.6667V40.7467C21.8602 41.2121 21.1899 41.8803 20.7221 42.685C20.2543 43.4896 20.0052 44.4027 19.9996 45.3334C19.9996 46.7479 20.5615 48.1045 21.5617 49.1047C22.5619 50.1048 23.9184 50.6667 25.3329 50.6667C26.7474 50.6667 28.104 50.1048 29.1042 49.1047C30.1043 48.1045 30.6663 46.7479 30.6663 45.3334C30.6606 44.4027 30.4115 43.4896 29.9437 42.685C29.4759 41.8803 28.8057 41.2121 27.9996 40.7467ZM51.9996 6.66675H50.6663V5.33341C50.6663 4.62617 50.3853 3.94789 49.8852 3.4478C49.3851 2.9477 48.7068 2.66675 47.9996 2.66675C47.2923 2.66675 46.6141 2.9477 46.114 3.4478C45.6139 3.94789 45.3329 4.62617 45.3329 5.33341V6.66675H43.9996C43.2923 6.66675 42.6141 6.9477 42.114 7.4478C41.6139 7.94789 41.3329 8.62617 41.3329 9.33342C41.3329 10.0407 41.6139 10.7189 42.114 11.219C42.6141 11.7191 43.2923 12.0001 43.9996 12.0001H45.3329V13.3334C45.3329 14.0407 45.6139 14.7189 46.114 15.219C46.6141 15.7191 47.2923 16.0001 47.9996 16.0001C48.7068 16.0001 49.3851 15.7191 49.8852 15.219C50.3853 14.7189 50.6663 14.0407 50.6663 13.3334V12.0001H51.9996C52.7068 12.0001 53.3851 11.7191 53.8852 11.219C54.3853 10.7189 54.6663 10.0407 54.6663 9.33342C54.6663 8.62617 54.3853 7.94789 53.8852 7.4478C53.3851 6.9477 52.7068 6.66675 51.9996 6.66675ZM37.3329 14.6667C37.3329 11.4842 36.0686 8.4319 33.8182 6.18147C31.5678 3.93103 28.5155 2.66675 25.3329 2.66675C22.1503 2.66675 19.0981 3.93103 16.8476 6.18147C14.5972 8.4319 13.3329 11.4842 13.3329 14.6667V34.6667C11.4898 36.7553 10.2239 39.2888 9.66042 42.0167C9.09691 44.7446 9.25533 47.5724 10.12 50.2202C10.9847 52.8681 12.5256 55.2444 14.5905 57.114C16.6553 58.9836 19.1724 60.2818 21.8929 60.8801C23.0143 61.136 24.1569 61.2878 25.3063 61.3334C28.4035 61.353 31.4399 60.4732 34.0469 58.8008C36.6539 57.1283 38.7194 54.7352 39.9928 51.9117C41.2662 49.0882 41.6927 45.9559 41.2205 42.8947C40.7484 39.8336 39.3979 36.9753 37.3329 34.6667V14.6667ZM31.9996 53.6268C30.5951 54.7687 28.923 55.5344 27.1409 55.8518C25.3587 56.1693 23.5251 56.0279 21.8127 55.4411C20.1002 54.8543 18.5653 53.8413 17.3524 52.4975C16.1395 51.1538 15.2885 49.5235 14.8796 47.7601C14.4676 45.9775 14.521 44.119 15.0347 42.3631C15.5484 40.6071 16.5051 39.0128 17.8129 37.7334C18.0649 37.4864 18.2653 37.1919 18.4027 36.8669C18.54 36.5419 18.6115 36.1929 18.6129 35.8401V14.6667C18.6129 12.8986 19.3153 11.2029 20.5655 9.9527C21.8158 8.70246 23.5115 8.00008 25.2796 8.00008C27.0477 8.00008 28.7434 8.70246 29.9936 9.9527C31.2439 11.2029 31.9463 12.8986 31.9463 14.6667V35.8401C31.9477 36.1929 32.0192 36.5419 32.1565 36.8669C32.2938 37.1919 32.4943 37.4864 32.7463 37.7334C33.8363 38.7864 34.6894 40.0596 35.2487 41.4682C35.8081 42.8767 36.0608 44.3883 35.9902 45.9022C35.9195 47.4161 35.5271 48.8976 34.839 50.248C34.1509 51.5983 33.1829 52.7865 31.9996 53.7334V53.6268Z" fill="#4D6595"/>
</svg>
