<svg width="60" height="59" viewBox="0 0 60 59" fill="none" xmlns="http://www.w3.org/2000/svg">
<path d="M59.0008 26.0075L53.9301 21.2658V5.54658C53.9291 5.30767 53.8827 5.0713 53.7935 4.85098C53.7042 4.63067 53.5739 4.43073 53.41 4.2626C53.2461 4.09447 53.0518 3.96145 52.8381 3.87115C52.6245 3.78085 52.3958 3.73504 52.1651 3.73634H39.9629C39.4971 3.73437 39.0496 3.92391 38.7187 4.26332C38.3878 4.60274 38.2005 5.06428 38.198 5.54658V6.55419L32.0778 0.829581C31.5106 0.295774 30.7716 0 30.0051 0C29.2387 0 28.4997 0.295774 27.9325 0.829581L1.00713 26.0075C0.54703 26.4328 0.223963 26.9939 0.0815147 27.6153C-0.0609341 28.2366 -0.0159103 28.8882 0.210512 29.4823C0.434991 30.0785 0.828578 30.5904 1.33946 30.9506C1.85035 31.3107 2.45458 31.5023 3.07263 31.5H7.3658V56.7248C7.36833 57.2073 7.55555 57.6691 7.88641 58.0089C8.21727 58.3487 8.66476 58.5388 9.13078 58.5375H23.8898C24.3555 58.5388 24.8028 58.3486 25.1333 58.0088C25.4638 57.6689 25.6504 57.2071 25.6523 56.7248V41.4131H34.346V56.7248C34.347 56.9638 34.3934 57.2003 34.4826 57.4208C34.5718 57.6412 34.702 57.8413 34.8659 58.0096C35.0298 58.178 35.2241 58.3112 35.4378 58.4018C35.6514 58.4924 35.8801 58.5385 36.111 58.5375H50.8676C51.0983 58.5385 51.327 58.4923 51.5405 58.4017C51.754 58.3111 51.9481 58.1778 52.1118 58.0095C52.2755 57.8411 52.4056 57.641 52.4945 57.4206C52.5834 57.2001 52.6296 56.9637 52.6302 56.7248V31.5H56.9234C57.5415 31.5026 58.1459 31.3112 58.6568 30.951C59.1677 30.5908 59.5613 30.0787 59.7855 29.4823C60.014 28.8896 60.0613 28.2385 59.9209 27.6171C59.7806 26.9957 59.4594 26.4338 59.0008 26.0075ZM50.8628 27.877C50.6321 27.8757 50.4034 27.9215 50.1898 28.0118C49.9762 28.1021 49.7818 28.2351 49.6179 28.4033C49.454 28.5714 49.3237 28.7713 49.2344 28.9916C49.1452 29.212 49.0988 29.4483 49.0978 29.6872V54.9145H37.8712V39.6028C37.8687 39.1205 37.6814 38.659 37.3504 38.3196C37.0195 37.9801 36.572 37.7906 36.1062 37.7926H23.9041C23.6733 37.7913 23.4446 37.8371 23.231 37.9274C23.0174 38.0177 22.8231 38.1507 22.6591 38.3188C22.4952 38.487 22.3649 38.6869 22.2757 38.9072C22.1864 39.1275 22.14 39.3639 22.1391 39.6028V54.9145H10.9101V29.6872C10.9091 29.4483 10.8627 29.212 10.7735 28.9916C10.6842 28.7713 10.5539 28.5714 10.39 28.4033C10.2261 28.2351 10.0318 28.1021 9.81814 28.0118C9.60453 27.9215 9.37581 27.8757 9.14509 27.877H4.24848L30.0075 3.79067L38.7775 11.9923C39.032 12.2304 39.3475 12.3872 39.6861 12.4437C40.0247 12.5003 40.3718 12.4541 40.6856 12.3109C40.9982 12.1712 41.2646 11.9399 41.4519 11.6455C41.6392 11.3511 41.7393 11.0064 41.7398 10.6538V7.35682H50.4144V22.066C50.4144 22.3183 50.4656 22.5678 50.5646 22.7984C50.6636 23.029 50.8083 23.2355 50.9892 23.4045L55.7714 27.877H50.8628Z" fill="#4D6595"/>
</svg>
