<svg width="60" height="60" viewBox="0 0 60 60" fill="none" xmlns="http://www.w3.org/2000/svg">
<path d="M30 0C13.4315 0 0 13.4315 0 30C0 46.5685 13.4315 60 30 60C46.5607 59.9813 59.9813 46.5607 60 30C60 13.4315 46.5685 0 30 0ZM30 58C14.536 58 2 45.464 2 30C2 14.536 14.536 2 30 2C45.4566 2.01763 57.9824 14.5434 58 30C58 45.464 45.464 58 30 58Z" fill="white"/>
<path d="M46.264 21.3219L30 37.5859L13.7361 21.3219C13.3486 20.9476 12.7342 20.9476 12.3467 21.3219C11.9494 21.7055 11.9384 22.3386 12.322 22.7359L29.293 39.7069C29.4805 39.8944 29.7348 39.9999 30 39.9999C30.2653 39.9999 30.5196 39.8944 30.7071 39.7069L47.6781 22.7359C47.6864 22.7279 47.6945 22.7196 47.7025 22.7114C48.0862 22.3141 48.0753 21.6811 47.6781 21.2974C47.2808 20.9136 46.6478 20.9246 46.264 21.3219Z" fill="white"/>
</svg>
